<svg width="20" height="20" viewBox="0 0 20 20" fill="none" xmlns="http://www.w3.org/2000/svg">
<g clip-path="url(#clip0_9_1608)">
<path d="M10.2641 2.55887C10.1815 2.52041 10.0915 2.50049 10.0004 2.50049C9.90926 2.50049 9.81924 2.52041 9.73663 2.55887L0.36163 6.93387C0.251233 6.98539 0.158303 7.06807 0.0942686 7.17171C0.0302345 7.27536 -0.00211144 7.39546 0.00120878 7.51724C0.004529 7.63903 0.0433706 7.75719 0.112957 7.85719C0.182543 7.95719 0.279839 8.03468 0.39288 8.08012L9.76788 11.8301C9.91711 11.8899 10.0836 11.8899 10.2329 11.8301L17.5004 8.92512V16.2501C17.1689 16.2501 16.8509 16.3818 16.6165 16.6162C16.3821 16.8507 16.2504 17.1686 16.2504 17.5001V20.0001H20.0004V17.5001C20.0004 17.1686 19.8687 16.8507 19.6343 16.6162C19.3998 16.3818 19.0819 16.2501 18.7504 16.2501V8.42387L19.6079 8.08012C19.7209 8.03468 19.8182 7.95719 19.8878 7.85719C19.9574 7.75719 19.9962 7.63903 19.9995 7.51724C20.0029 7.39546 19.9705 7.27536 19.9065 7.17171C19.8425 7.06807 19.7495 6.98539 19.6391 6.93387L10.2641 2.55887ZM10.0004 10.5751L2.19788 7.45637L10.0004 3.81512L17.8029 7.45637L10.0004 10.5751Z" fill="#ED1C24"/>
<path d="M5.22029 11.2901C5.13981 11.2598 5.05394 11.2464 4.96805 11.2508C4.88216 11.2552 4.7981 11.2773 4.72113 11.3156C4.64417 11.354 4.57594 11.4078 4.52074 11.4738C4.46553 11.5397 4.42453 11.6164 4.40029 11.6989L3.77529 13.8239C3.73151 13.9731 3.74491 14.1332 3.81286 14.273C3.88081 14.4129 3.99845 14.5224 4.14279 14.5801L9.76779 16.8301C9.91702 16.8899 10.0836 16.8899 10.2328 16.8301L15.8578 14.5801C16.0021 14.5224 16.1198 14.4129 16.1877 14.273C16.2557 14.1332 16.2691 13.9731 16.2253 13.8239L15.6003 11.6989C15.5761 11.6164 15.5351 11.5397 15.4798 11.4738C15.4246 11.4078 15.3564 11.354 15.2794 11.3156C15.2025 11.2773 15.1184 11.2552 15.0325 11.2508C14.9466 11.2464 14.8608 11.2598 14.7803 11.2901L10.0003 13.0826L5.22029 11.2901ZM5.13529 13.6314L5.41029 12.6964L9.78029 14.3351C9.92211 14.3885 10.0785 14.3885 10.2203 14.3351L14.5903 12.6964L14.8653 13.6314L10.0003 15.5751L5.13529 13.6314Z" fill="#ED1C24"/>
</g>
<defs>
<clipPath id="clip0_9_1608">
<rect width="20" height="20" fill="white"/>
</clipPath>
</defs>
</svg>
