<svg width="20" height="20" viewBox="0 0 20 20" fill="none" xmlns="http://www.w3.org/2000/svg">
<g clip-path="url(#clip0_9_1615)">
<path d="M15.6198 9.9998C15.62 10.8474 15.4286 11.684 15.06 12.4472C14.6914 13.2104 14.1551 13.8805 13.4911 14.4073L11.8711 10.6248L15.5698 9.2373C15.6032 9.4873 15.6198 9.74147 15.6198 9.9998Z" fill="#ED1C24"/>
<path d="M20 10C20 12.6522 18.9464 15.1957 17.0711 17.0711C15.1957 18.9464 12.6522 20 10 20C7.34784 20 4.8043 18.9464 2.92893 17.0711C1.05357 15.1957 0 12.6522 0 10C0 7.34784 1.05357 4.8043 2.92893 2.92893C4.8043 1.05357 7.34784 0 10 0C12.6522 0 15.1957 1.05357 17.0711 2.92893C18.9464 4.8043 20 7.34784 20 10ZM18.75 10C18.7494 8.67334 18.4471 7.36418 17.866 6.17154C17.285 4.9789 16.4403 3.934 15.3959 3.11588C14.3516 2.29775 13.1348 1.72782 11.8378 1.44918C10.5407 1.17054 9.19725 1.19049 7.90902 1.50752C6.6208 1.82455 5.42153 2.43036 4.40191 3.27914C3.38229 4.12791 2.56903 5.19743 2.02363 6.40679C1.47822 7.61616 1.21496 8.93372 1.25374 10.2598C1.29253 11.5859 1.63235 12.8858 2.2475 14.0612L4.7325 11.99C4.26812 10.7654 4.24561 9.41714 4.66886 8.17772C5.0921 6.93831 5.93457 5.88543 7.05098 5.20065C8.16739 4.51587 9.48776 4.24213 10.7844 4.42661C12.081 4.6111 13.2726 5.24226 14.1537 6.21125L9.37125 8.125L10.6213 11.25L12.2875 15.1375C11.5875 15.4512 10.8125 15.625 9.99625 15.625C9.31646 15.6254 8.64223 15.5026 8.00625 15.2625L5.93375 17.75C7.26748 18.45 8.75933 18.7938 10.2649 18.7482C11.7705 18.7026 13.2388 18.2691 14.5277 17.4897C15.8166 16.7103 16.8825 15.6113 17.6222 14.2992C18.3619 12.9871 18.7504 11.5063 18.75 10ZM8.38125 10.1737C8.41766 10.1195 8.43613 10.0552 8.43408 9.98985C8.43204 9.92454 8.40956 9.86151 8.36983 9.80963C8.33009 9.75775 8.27509 9.71964 8.21256 9.70064C8.15003 9.68165 8.08313 9.68274 8.02125 9.70375L6.14625 10.3287L6.345 10.9213L7.355 10.5837L6.61125 11.7013C6.57507 11.7554 6.55672 11.8196 6.55878 11.8847C6.56084 11.9498 6.58319 12.0126 6.62272 12.0644C6.66225 12.1162 6.71697 12.1543 6.77924 12.1735C6.8415 12.1926 6.9082 12.1919 6.97 12.1713L7.98 11.8337L7.23625 12.9513C7.20007 13.0054 7.18172 13.0696 7.18378 13.1347C7.18584 13.1998 7.20819 13.2626 7.24772 13.3144C7.28725 13.3662 7.34197 13.4043 7.40424 13.4235C7.4665 13.4426 7.5332 13.4419 7.595 13.4213L9.47 12.7963L9.27125 12.2037L8.26125 12.5413L9.00625 11.4237C9.04266 11.3695 9.06113 11.3052 9.05908 11.2399C9.05704 11.1745 9.03456 11.1115 8.99483 11.0596C8.95509 11.0078 8.90009 10.9696 8.83756 10.9506C8.77503 10.9316 8.70813 10.9327 8.64625 10.9537L7.63625 11.2913L8.38125 10.1737Z" fill="#ED1C24"/>
</g>
<defs>
<clipPath id="clip0_9_1615">
<rect width="20" height="20" fill="white"/>
</clipPath>
</defs>
</svg>
