<svg width="20" height="20" viewBox="0 0 20 20" fill="none" xmlns="http://www.w3.org/2000/svg">
<g clip-path="url(#clip0_784_395)">
<path d="M14.6776 12.9306C15.888 11.279 16.4301 9.23123 16.1955 7.19705C15.9609 5.16287 14.9669 3.29229 13.4123 1.95953C11.8578 0.626765 9.85733 -0.0698816 7.81119 0.00895979C5.76505 0.0878012 3.82413 0.936316 2.37673 2.38475C0.929335 3.83318 0.0822089 5.77471 0.0048316 7.82091C-0.0725457 9.8671 0.625532 11.8671 1.95941 13.4207C3.29328 14.9743 5.16458 15.967 7.19892 16.2001C9.23326 16.4332 11.2806 15.8897 12.9314 14.6781H12.9301C12.9668 14.7281 13.0076 14.776 13.0526 14.8219L17.8651 19.6344C18.0995 19.8689 18.4175 20.0007 18.7491 20.0009C19.0807 20.001 19.3987 19.8694 19.6333 19.635C19.8678 19.4006 19.9997 19.0826 19.9998 18.7511C19.9999 18.4195 19.8683 18.1014 19.6339 17.8669L14.8214 13.0544C14.7767 13.0091 14.7287 12.9686 14.6776 12.9306ZM15.0001 8.12561C15.0001 9.02845 14.8223 9.92245 14.4768 10.7566C14.1313 11.5907 13.6249 12.3486 12.9865 12.987C12.3481 13.6254 11.5902 14.1318 10.7561 14.4773C9.92198 14.8228 9.02798 15.0006 8.12514 15.0006C7.22231 15.0006 6.32831 14.8228 5.4942 14.4773C4.66008 14.1318 3.90219 13.6254 3.26379 12.987C2.62538 12.3486 2.11897 11.5907 1.77347 10.7566C1.42797 9.92245 1.25015 9.02845 1.25015 8.12561C1.25015 6.30225 1.97447 4.55357 3.26379 3.26426C4.5531 1.97494 6.30178 1.25061 8.12514 1.25061C9.94851 1.25061 11.6972 1.97494 12.9865 3.26426C14.2758 4.55357 15.0001 6.30225 15.0001 8.12561Z" fill="white"/>
</g>
<defs>
<clipPath id="clip0_784_395">
<rect width="20" height="20" fill="white"/>
</clipPath>
</defs>
</svg>
