<svg width="51" height="51" viewBox="0 0 51 51" fill="none" xmlns="http://www.w3.org/2000/svg">
<circle cx="25.5" cy="25.5" r="25" fill="#F4F4F4" fill-opacity="0.1" stroke="#F4F4F4" stroke-opacity="0.5"/>
<g clip-path="url(#clip0_979_2009)">
<path fill-rule="evenodd" clip-rule="evenodd" d="M20.5091 26.6528C20.2467 26.3849 20.0992 26.0216 20.0992 25.6428C20.0992 25.264 20.2467 24.9007 20.5091 24.6328L28.4289 16.5514C28.5581 16.4149 28.7126 16.3061 28.8834 16.2312C29.0542 16.1563 29.2379 16.1169 29.4238 16.1153C29.6097 16.1136 29.794 16.1498 29.9661 16.2216C30.1381 16.2934 30.2944 16.3995 30.4259 16.5337C30.5573 16.6678 30.6613 16.8273 30.7317 17.0029C30.8021 17.1784 30.8375 17.3665 30.8359 17.5562C30.8343 17.7459 30.7956 17.9334 30.7223 18.1077C30.6489 18.2819 30.5422 18.4396 30.4085 18.5714L23.4785 25.6428L30.4085 32.7142C30.6636 32.9837 30.8047 33.3445 30.8015 33.7191C30.7983 34.0936 30.6511 34.4519 30.3915 34.7168C30.1319 34.9817 29.7808 35.1319 29.4137 35.1352C29.0466 35.1384 28.693 34.9944 28.4289 34.7342L20.5091 26.6528Z" fill="#F4F4F4"/>
</g>
<defs>
<clipPath id="clip0_979_2009">
<rect width="20" height="12" fill="white" transform="matrix(0 1 -1 0 31.5 15.5)"/>
</clipPath>
</defs>
</svg>
