<svg width="17" height="16" viewBox="0 0 17 16" fill="none" xmlns="http://www.w3.org/2000/svg">
<path d="M10.8061 8.59375L11.8161 14.2778C11.8274 14.3447 11.818 14.4135 11.7892 14.4749C11.7604 14.5364 11.7134 14.5875 11.6547 14.6216C11.596 14.6557 11.5283 14.671 11.4607 14.6656C11.393 14.6601 11.3286 14.6341 11.2761 14.5911L8.88945 12.7997C8.77423 12.7137 8.63427 12.6672 8.49045 12.6672C8.34663 12.6672 8.20667 12.7137 8.09145 12.7997L5.70078 14.5904C5.64833 14.6334 5.58402 14.6593 5.51645 14.6648C5.44887 14.6702 5.38123 14.655 5.32256 14.621C5.26388 14.587 5.21697 14.536 5.18806 14.4746C5.15916 14.4133 5.14964 14.3446 5.16078 14.2778L6.17012 8.59375" stroke="#F4F4F4" stroke-width="1.33333" stroke-linecap="round" stroke-linejoin="round"/>
<path d="M8.48828 9.33398C10.6974 9.33398 12.4883 7.54312 12.4883 5.33398C12.4883 3.12485 10.6974 1.33398 8.48828 1.33398C6.27914 1.33398 4.48828 3.12485 4.48828 5.33398C4.48828 7.54312 6.27914 9.33398 8.48828 9.33398Z" stroke="#F4F4F4" stroke-width="1.33333" stroke-linecap="round" stroke-linejoin="round"/>
</svg>
