<svg width="16" height="16" viewBox="0 0 16 16" fill="none" xmlns="http://www.w3.org/2000/svg">
<path d="M4.48828 14.6673V2.66732C4.48828 2.3137 4.62876 1.97456 4.87881 1.72451C5.12885 1.47446 5.46799 1.33398 5.82161 1.33398H11.1549C11.5086 1.33398 11.8477 1.47446 12.0978 1.72451C12.3478 1.97456 12.4883 2.3137 12.4883 2.66732V14.6673H4.48828Z" stroke="#F4F4F4" stroke-width="1.33333" stroke-linecap="round" stroke-linejoin="round"/>
<path d="M4.48893 8H3.1556C2.80198 8 2.46284 8.14048 2.21279 8.39052C1.96274 8.64057 1.82227 8.97971 1.82227 9.33333V13.3333C1.82227 13.687 1.96274 14.0261 2.21279 14.2761C2.46284 14.5262 2.80198 14.6667 3.1556 14.6667H4.48893" stroke="#F4F4F4" stroke-width="1.33333" stroke-linecap="round" stroke-linejoin="round"/>
<path d="M12.4883 6H13.8216C14.1752 6 14.5144 6.14048 14.7644 6.39052C15.0145 6.64057 15.1549 6.97971 15.1549 7.33333V13.3333C15.1549 13.687 15.0145 14.0261 14.7644 14.2761C14.5144 14.5262 14.1752 14.6667 13.8216 14.6667H12.4883" stroke="#F4F4F4" stroke-width="1.33333" stroke-linecap="round" stroke-linejoin="round"/>
<path d="M7.1543 4H9.82096" stroke="#F4F4F4" stroke-width="1.33333" stroke-linecap="round" stroke-linejoin="round"/>
<path d="M7.1543 6.66602H9.82096" stroke="#F4F4F4" stroke-width="1.33333" stroke-linecap="round" stroke-linejoin="round"/>
<path d="M7.1543 9.33398H9.82096" stroke="#F4F4F4" stroke-width="1.33333" stroke-linecap="round" stroke-linejoin="round"/>
<path d="M7.1543 12H9.82096" stroke="#F4F4F4" stroke-width="1.33333" stroke-linecap="round" stroke-linejoin="round"/>
</svg>
