<svg width="16" height="16" viewBox="0 0 16 16" fill="none" xmlns="http://www.w3.org/2000/svg">
<path d="M3.02279 11.0002C2.02279 11.8402 1.68945 14.3335 1.68945 14.3335C1.68945 14.3335 4.18279 14.0002 5.02279 13.0002C5.49612 12.4402 5.48945 11.5802 4.96279 11.0602C4.70366 10.8129 4.36232 10.67 4.00427 10.6589C3.64623 10.6478 3.2967 10.7694 3.02279 11.0002Z" stroke="#F4F4F4" stroke-width="1.33333" stroke-linecap="round" stroke-linejoin="round"/>
<path d="M8.02344 9.99886L6.02344 7.99886C6.3782 7.07848 6.82491 6.19624 7.35677 5.36553C8.13356 4.12352 9.21519 3.1009 10.4988 2.39492C11.7824 1.68895 13.2252 1.32311 14.6901 1.3322C14.6901 3.14553 14.1701 6.3322 10.6901 8.66553C9.84803 9.19801 8.95467 9.64469 8.02344 9.99886Z" stroke="#F4F4F4" stroke-width="1.33333" stroke-linecap="round" stroke-linejoin="round"/>
<path d="M6.02279 8.00034H2.68945C2.68945 8.00034 3.05612 5.98034 4.02279 5.33367C5.10279 4.61367 7.35612 5.33367 7.35612 5.33367" stroke="#F4F4F4" stroke-width="1.33333" stroke-linecap="round" stroke-linejoin="round"/>
<path d="M8.02344 9.99935V13.3327C8.02344 13.3327 10.0434 12.966 10.6901 11.9993C11.4101 10.9193 10.6901 8.66602 10.6901 8.66602" stroke="#F4F4F4" stroke-width="1.33333" stroke-linecap="round" stroke-linejoin="round"/>
</svg>
