<svg width="16" height="16" viewBox="0 0 16 16" fill="none" xmlns="http://www.w3.org/2000/svg">
<path d="M8.18414 1C8.1188 0.999867 8.05426 1.0165 7.99529 1.04868C7.93631 1.08085 7.8844 1.12775 7.84337 1.18592L7.7656 1.2519C6.25835 0.718116 4.53877 1.10996 3.34171 2.42941C2.84028 2.97346 2.46727 3.65375 2.25737 4.40699C2.04746 5.16024 2.00748 5.96198 2.14115 6.73764L2.09746 6.78363L1.41679 7.53332C1.28512 7.67621 1.18027 7.84828 1.10861 8.03903C1.03695 8.22979 1 8.43524 1 8.64286C1 8.85048 1.03695 9.05593 1.10861 9.24669C1.18027 9.43745 1.28512 9.60951 1.41679 9.75241C1.76455 10.1362 2.24687 10.2802 2.69512 10.1842C2.75016 10.4731 2.87861 10.748 3.0822 10.9719C3.35044 11.2678 3.69908 11.4207 4.05033 11.4317C4.05994 11.8186 4.19887 12.2024 4.46712 12.4983C4.73537 12.7942 5.08488 12.9481 5.43613 12.9581C5.44487 13.3449 5.58467 13.7298 5.85292 14.0256C6.10973 14.3045 6.44613 14.4674 6.79987 14.4843C7.1536 14.5012 7.50072 14.3709 7.77696 14.1176L8.1588 14.5374C8.71801 15.1542 9.62498 15.1542 10.1842 14.5374C10.4516 14.2436 10.5905 13.8617 10.6027 13.4759C10.9522 13.4639 11.2974 13.3109 11.5639 13.0171C11.8304 12.7232 11.9702 12.3403 11.9807 11.9545C12.3357 11.9398 12.6737 11.7765 12.9305 11.4957C13.1428 11.2628 13.2738 10.9739 13.3245 10.672C13.5494 10.7171 13.7804 10.7011 13.999 10.6254C14.2175 10.5497 14.4175 10.4164 14.5827 10.2362C14.7146 10.0933 14.8195 9.92117 14.8913 9.73033C14.963 9.53948 15 9.33391 15 9.12616C15 8.91842 14.963 8.71285 14.8913 8.522C14.8195 8.33115 14.7146 8.15902 14.5827 8.01612L13.9536 7.3234L14.0821 6.77363C14.341 5.64959 14.2095 4.45454 13.7151 3.439C12.9846 1.93362 11.5674 1.004 10.0348 1.004H8.96004L8.82111 1H8.18414ZM10.3275 4.71447L12.4289 7.03052L12.4315 7.03252L13.9528 8.70983C14.0022 8.76344 14.0415 8.828 14.0684 8.89958C14.0953 8.97116 14.1092 9.04825 14.1092 9.12616C14.1092 9.20407 14.0953 9.28117 14.0684 9.35274C14.0415 9.42432 14.0022 9.48888 13.9528 9.54249C13.8506 9.65285 13.7154 9.71433 13.5749 9.71433C13.4343 9.71433 13.2991 9.65285 13.197 9.54249L12.0427 8.27101C11.9581 8.17816 11.8454 8.12631 11.7281 8.12631C11.6109 8.12631 11.4982 8.17816 11.4136 8.27101L11.4014 8.28301C11.3604 8.32781 11.3278 8.38164 11.3055 8.44125C11.2832 8.50087 11.2717 8.56503 11.2717 8.62987C11.2717 8.6947 11.2832 8.75886 11.3055 8.81848C11.3278 8.8781 11.3604 8.93193 11.4014 8.97672L12.3013 9.96832C12.511 10.1982 12.511 10.5721 12.3013 10.803C12.2085 10.9036 12.088 10.9641 11.9605 10.9741C11.8329 10.9841 11.7063 10.9431 11.6023 10.858C11.5156 10.7862 11.4096 10.7516 11.3028 10.76C11.196 10.7684 11.0951 10.8193 11.0178 10.9039C10.9422 10.9866 10.8965 11.0989 10.8899 11.2183C10.8832 11.3377 10.9161 11.4557 10.9819 11.5487C11.0604 11.6611 11.0991 11.8031 11.0903 11.9465C11.0816 12.09 11.0261 12.2245 10.9348 12.3233C10.8406 12.4255 10.718 12.4863 10.5885 12.495C10.459 12.5038 10.331 12.46 10.227 12.3713C10.1407 12.2972 10.0342 12.2604 9.92649 12.2674C9.81874 12.2743 9.71659 12.3246 9.63809 12.4093C9.56149 12.4919 9.51504 12.6046 9.50807 12.7247C9.5011 12.8449 9.53412 12.9636 9.60052 13.057C9.68118 13.1708 9.72125 13.3152 9.71266 13.4613C9.70407 13.6074 9.64746 13.7444 9.55421 13.8447C9.45078 13.957 9.31364 14.0196 9.17106 14.0196C9.02848 14.0196 8.89133 13.957 8.78791 13.8447L8.40957 13.4279L8.54762 13.276C8.67943 13.1331 8.7844 12.9609 8.85614 12.7701C8.92788 12.5792 8.96488 12.3737 8.96488 12.1659C8.96488 11.9582 8.92788 11.7526 8.85614 11.5618C8.7844 11.3709 8.67943 11.1988 8.54762 11.0559C8.2863 10.7699 7.94102 10.6059 7.57949 10.5961C7.56869 10.1913 7.41895 9.8078 7.1627 9.5285C6.90102 9.24265 6.55541 9.07901 6.19369 9.06969C6.18289 8.66497 6.03315 8.28142 5.7769 8.00212C5.60904 7.81935 5.40554 7.68494 5.18324 7.61002C4.96094 7.5351 4.72625 7.52183 4.49858 7.5713C4.44083 7.27058 4.30607 6.99635 4.1115 6.78363C3.96237 6.62047 3.78453 6.49559 3.58985 6.41734C3.39518 6.33908 3.18815 6.30924 2.98259 6.32981C2.91389 5.74408 2.96756 5.14805 3.13919 4.59064C3.31083 4.03323 3.59553 3.5303 3.96995 3.12313C4.34837 2.70943 4.80214 2.39666 5.2987 2.20725C5.79525 2.01784 6.3223 1.95648 6.84203 2.02758L5.57069 3.09714C5.40803 3.23235 5.271 3.40388 5.1679 3.60136C5.06479 3.79884 4.99774 4.01818 4.97079 4.24613C4.94384 4.47408 4.95755 4.70591 5.0111 4.92763C5.06465 5.14935 5.15692 5.35635 5.28235 5.53614C5.53613 5.89978 5.90263 6.13758 6.30569 6.20012C6.70875 6.26267 7.11738 6.14516 7.44667 5.872L8.82373 4.71547L10.3275 4.71447ZM6.08796 3.90181L8.35277 1.99959H8.82111C8.86396 1.99912 8.9068 2.00045 8.94956 2.00359H10.0348C11.2616 2.00359 12.3808 2.74828 12.9514 3.9248C13.3376 4.72047 13.439 5.64509 13.2371 6.51773L13.2345 6.52773L10.8229 3.86183C10.7412 3.76803 10.6302 3.71518 10.5145 3.71489H8.67956C8.58682 3.71509 8.49655 3.74905 8.4218 3.81185L6.9294 5.06533C6.78274 5.18518 6.60163 5.2365 6.42302 5.20882C6.24441 5.18115 6.08177 5.07656 5.96826 4.91639C5.91542 4.84193 5.87646 4.75588 5.85379 4.66355C5.83111 4.57121 5.8252 4.47455 5.83641 4.3795C5.84763 4.28445 5.87573 4.19304 5.91899 4.11089C5.96225 4.02873 6.01976 3.95758 6.08796 3.90181ZM6.47417 12.5083L6.48291 12.4983L7.1627 11.7486L7.17056 11.7406C7.2733 11.634 7.40741 11.5758 7.54608 11.5774C7.68474 11.5791 7.81775 11.6406 7.91851 11.7496C7.96793 11.8032 8.00728 11.8678 8.03417 11.9393C8.06107 12.0109 8.07494 12.088 8.07494 12.1659C8.07494 12.2438 8.06107 12.3209 8.03417 12.3925C8.00728 12.4641 7.96793 12.5286 7.91851 12.5822L7.23784 13.3319C7.13567 13.4423 7.00046 13.5038 6.85994 13.5038C6.71941 13.5038 6.58421 13.4423 6.48203 13.3319C6.43326 13.2791 6.39426 13.2156 6.36734 13.1453C6.34042 13.0749 6.32613 12.999 6.32532 12.9222C6.3245 12.8454 6.33718 12.7692 6.3626 12.6981C6.38802 12.627 6.42654 12.5624 6.47417 12.5083ZM6.54058 11.0469L6.53184 11.0559L5.85204 11.8056L5.84331 11.8146C5.74051 11.9207 5.60652 11.9786 5.46806 11.9768C5.3296 11.9749 5.19683 11.9134 5.09623 11.8046C5.04737 11.7515 5.00835 11.6878 4.98149 11.6171C4.95464 11.5464 4.94051 11.4703 4.93994 11.3932C4.93937 11.3162 4.95237 11.2398 4.97817 11.1686C5.00397 11.0974 5.04205 11.0329 5.09012 10.9789L5.09623 10.9719L5.77603 10.2222L5.78214 10.2152C5.88476 10.1078 6.01912 10.0488 6.15819 10.0501C6.29727 10.0514 6.43076 10.1129 6.53184 10.2222C6.58074 10.275 6.61985 10.3386 6.64685 10.4091C6.67385 10.4795 6.68819 10.5555 6.689 10.6324C6.68982 10.7094 6.6771 10.7857 6.6516 10.8569C6.6261 10.9281 6.58834 10.9927 6.54058 11.0469ZM5.14691 9.5285L4.46625 10.2782L4.46013 10.2852C4.35751 10.3926 4.22316 10.4516 4.08408 10.4503C3.945 10.449 3.81151 10.3875 3.71044 10.2782C3.66102 10.2246 3.62167 10.16 3.59477 10.0884C3.56788 10.0169 3.55401 9.93977 3.55401 9.86186C3.55401 9.78395 3.56788 9.70686 3.59477 9.63528C3.62167 9.5637 3.66102 9.49914 3.71044 9.44553L4.39023 8.69584C4.49245 8.58519 4.62784 8.52352 4.76857 8.52352C4.9093 8.52352 5.04469 8.58519 5.14691 8.69584C5.19591 8.7489 5.23505 8.81272 5.26198 8.88348C5.28892 8.95425 5.30309 9.0305 5.30366 9.10768C5.30424 9.18486 5.29119 9.26138 5.26531 9.33266C5.23942 9.40393 5.20124 9.4685 5.15303 9.5225L5.14691 9.5285ZM3.48151 8.31L2.80172 9.05969C2.69949 9.17034 2.56411 9.23201 2.42337 9.23201C2.28264 9.23201 2.14726 9.17034 2.04503 9.05969C1.99548 9.00607 1.95601 8.94145 1.92903 8.86977C1.90206 8.7981 1.88814 8.72089 1.88814 8.64286C1.88814 8.56483 1.90206 8.48762 1.92903 8.41595C1.95601 8.34428 1.99548 8.27966 2.04503 8.22603L2.7257 7.47634C2.82788 7.36598 2.96308 7.3045 3.1036 7.3045C3.24413 7.3045 3.37933 7.36598 3.48151 7.47634C3.53106 7.52996 3.57053 7.59459 3.59751 7.66626C3.62448 7.73793 3.6384 7.81514 3.6384 7.89317C3.6384 7.9712 3.62448 8.04841 3.59751 8.12008C3.57053 8.19175 3.53106 8.25638 3.48151 8.31Z" fill="#F4F4F4"/>
</svg>
