<svg width="16" height="16" viewBox="0 0 16 16" fill="none" xmlns="http://www.w3.org/2000/svg">
<path d="M10.6673 14V12.6667C10.6673 11.9594 10.3864 11.2811 9.88627 10.781C9.38617 10.281 8.70789 10 8.00065 10H4.00065C3.29341 10 2.61513 10.281 2.11503 10.781C1.61494 11.2811 1.33398 11.9594 1.33398 12.6667V14" stroke="#F4F4F4" stroke-width="1.33333" stroke-linecap="round" stroke-linejoin="round"/>
<path d="M10.666 2.08594C11.2379 2.23418 11.7443 2.56811 12.1058 3.03531C12.4673 3.50251 12.6635 4.07653 12.6635 4.66727C12.6635 5.25801 12.4673 5.83203 12.1058 6.29923C11.7443 6.76643 11.2379 7.10036 10.666 7.2486" stroke="#F4F4F4" stroke-width="1.33333" stroke-linecap="round" stroke-linejoin="round"/>
<path d="M14.666 13.9993V12.6659C14.6656 12.0751 14.4689 11.5011 14.1069 11.0341C13.7449 10.5672 13.2381 10.2336 12.666 10.0859" stroke="#F4F4F4" stroke-width="1.33333" stroke-linecap="round" stroke-linejoin="round"/>
<path d="M6.00065 7.33333C7.47341 7.33333 8.66732 6.13943 8.66732 4.66667C8.66732 3.19391 7.47341 2 6.00065 2C4.52789 2 3.33398 3.19391 3.33398 4.66667C3.33398 6.13943 4.52789 7.33333 6.00065 7.33333Z" stroke="#F4F4F4" stroke-width="1.33333" stroke-linecap="round" stroke-linejoin="round"/>
</svg>
